<?xml version="1.0" standalone="no"?>
<!DOCTYPE svg PUBLIC "-//W3C//DTD SVG 20010904//EN"
 "http://www.w3.org/TR/2001/REC-SVG-20010904/DTD/svg10.dtd">
<svg version="1.0" xmlns="http://www.w3.org/2000/svg"
 width="500.000000pt" height="500.000000pt" viewBox="0 0 500.000000 500.000000"
 preserveAspectRatio="xMidYMid meet">
<metadata>
Created by potrace 1.14, written by Peter Selinger 2001-2017
</metadata>
<g transform="translate(0.000000,500.000000) scale(0.100000,-0.100000)"
fill="#000000" stroke="none">
<path d="M2398 4810 c-52 -28 -81 -73 -86 -135 -5 -58 10 -97 55 -141 l28 -28
0 -385 c1 -212 -1 -391 -3 -398 -2 -8 -11 -9 -27 -3 -40 15 -195 8 -260 -11
-33 -11 -63 -19 -67 -19 -4 0 -6 29 -6 65 1 44 4 62 12 58 8 -5 7 -2 0 8 -16
19 -16 141 -1 132 7 -4 7 0 -1 9 -7 9 -12 22 -11 30 1 7 1 28 0 46 l-1 32
-600 0 -600 0 -39 39 c-64 64 -142 70 -217 19 -61 -42 -85 -139 -50 -207 18
-33 85 -93 98 -85 4 3 8 2 8 -3 0 -4 24 -8 54 -8 30 0 52 3 49 8 -2 4 0 7 6 7
5 0 17 7 25 16 9 9 24 17 34 19 9 1 16 9 14 18 -2 14 17 16 155 16 87 -1 163
0 168 1 6 1 15 1 20 0 6 -1 69 -2 142 -2 94 -1 130 -4 126 -12 -4 -6 1 -5 10
3 9 7 26 11 37 8 11 -3 22 -1 25 4 3 4 12 6 19 3 23 -9 97 -10 102 -2 3 5 10
5 16 2 5 -4 62 -6 127 -6 l116 0 0 -164 0 -163 -36 -38 c-20 -21 -60 -71 -89
-111 -28 -40 -64 -79 -78 -86 -15 -7 -65 -21 -111 -30 -82 -17 -187 -60 -216
-90 -8 -8 -25 -23 -38 -33 -42 -33 -99 -116 -142 -208 -49 -104 -66 -125 -133
-158 -173 -87 -276 -197 -332 -358 -24 -67 -28 -93 -27 -185 0 -90 5 -119 28
-187 16 -44 36 -91 45 -104 8 -14 13 -31 10 -38 -3 -8 -1 -17 5 -21 6 -3 8
-11 6 -17 -5 -15 26 -127 50 -182 26 -61 80 -135 132 -183 62 -57 69 -62 80
-62 6 0 14 -8 20 -17 5 -10 12 -16 16 -14 6 3 41 -9 95 -31 14 -6 41 -13 60
-15 19 -2 38 -9 42 -16 6 -9 8 -9 8 1 0 8 6 12 13 9 6 -2 11 -10 9 -16 -1 -7
2 -10 8 -6 6 3 8 10 5 14 -5 9 51 5 67 -5 7 -5 8 -2 4 5 -5 8 -3 11 5 10 8 -2
34 0 59 4 25 4 47 7 50 6 3 -2 16 3 29 10 17 10 21 10 16 1 -4 -7 5 -4 21 6
15 11 25 14 22 8 -4 -6 -1 -11 7 -11 8 0 12 4 9 9 -10 16 9 8 22 -10 13 -16
14 -16 7 2 -5 15 -3 17 8 11 40 -23 79 -57 73 -66 -3 -5 -1 -8 4 -7 5 2 29
-14 53 -36 24 -21 56 -44 71 -52 16 -8 28 -19 28 -25 0 -6 3 -8 8 -6 4 3 7
-168 7 -380 l0 -385 -27 -23 c-96 -82 -69 -247 47 -285 33 -11 161 -10 143 1
-7 5 -7 9 1 13 6 4 16 4 21 1 6 -4 9 -1 8 7 -2 7 3 12 9 11 7 -2 12 0 11 5 -1
4 2 17 6 30 5 16 13 22 24 17 14 -5 15 -4 5 6 -14 14 -18 33 -5 25 11 -6 6 56
-8 98 -6 19 -26 48 -43 64 -37 33 -43 48 -25 70 9 11 9 14 1 9 -9 -6 -12 5
-11 38 0 26 5 45 12 45 7 0 7 3 -1 8 -18 12 -12 54 7 47 11 -4 11 -2 -2 8 -20
16 -22 87 -4 99 7 5 6 8 -3 8 -11 0 -11 3 0 17 10 11 10 14 2 9 -8 -4 -13 -2
-13 6 0 8 6 20 13 27 9 11 9 12 0 7 -17 -9 -15 76 1 86 7 5 6 8 -3 8 -11 0
-11 3 0 17 10 11 10 14 2 9 -17 -10 -17 16 0 33 9 10 9 12 0 7 -9 -5 -12 6
-11 39 0 26 5 45 12 45 6 0 4 5 -4 10 -13 8 -13 13 -2 31 8 11 9 18 3 14 -7
-4 -10 2 -8 15 3 20 10 22 80 23 46 1 77 -2 77 -8 0 -5 5 -3 10 5 8 13 13 13
31 2 11 -8 18 -9 15 -4 -7 11 79 44 88 34 3 -3 6 0 6 8 0 10 4 10 17 -1 9 -8
14 -9 10 -3 -4 7 -1 17 7 23 10 9 15 8 20 -4 3 -8 1 -15 -5 -15 -6 0 -7 -6 -2
-12 4 -7 8 -174 8 -372 0 -356 0 -358 -21 -375 -116 -91 -67 -280 77 -298 24
-3 50 -10 57 -16 9 -7 11 -6 6 7 -4 9 -3 16 2 14 5 -1 19 3 32 10 20 12 26 9
23 -11 -1 -5 3 -6 9 -2 6 3 8 11 4 16 -3 5 6 23 20 40 14 17 26 35 26 40 0 6
4 8 9 4 5 -3 13 0 17 6 4 8 3 9 -5 5 -8 -5 -11 4 -9 31 3 54 -18 107 -57 141
-26 23 -31 33 -22 42 9 10 9 11 0 6 -17 -9 -17 6 0 23 8 9 8 12 0 7 -14 -7
-13 61 1 83 6 9 5 12 -1 8 -13 -8 -12 91 1 112 6 10 5 12 -2 7 -16 -10 -15 7
1 23 8 9 8 12 0 7 -14 -7 -13 61 1 83 6 9 5 12 -1 8 -13 -8 -12 91 1 112 6 10
5 12 -2 7 -16 -10 -15 7 1 23 6 8 7 11 1 8 -7 -4 -11 16 -11 63 1 46 4 67 11
63 6 -3 5 0 -1 8 -16 17 -17 43 -1 33 7 -5 8 -3 2 7 -14 22 -15 80 -1 72 7 -4
7 0 -1 9 -14 18 -13 49 3 60 6 5 5 8 -2 8 -20 0 -15 20 5 20 14 0 15 2 2 10
-11 7 -5 10 23 10 20 0 37 -5 37 -11 0 -5 5 -7 10 -4 6 3 10 2 10 -4 0 -5 9
-13 20 -16 11 -3 20 -13 20 -21 0 -8 3 -13 8 -10 8 5 84 -49 77 -55 -2 -3 6
-6 18 -6 12 -1 26 -8 32 -16 5 -8 16 -12 24 -9 8 2 11 1 8 -4 -3 -5 6 -10 20
-11 14 0 29 -5 35 -11 5 -5 9 -152 10 -361 l0 -353 -31 -26 c-67 -56 -75 -174
-16 -237 6 -6 25 -21 44 -35 58 -40 151 -24 207 37 21 22 26 24 41 12 17 -12
17 -12 2 5 -17 18 -14 70 3 60 6 -4 5 3 -1 15 -7 11 -8 21 -3 21 17 0 -15 71
-49 111 -19 22 -34 50 -35 63 -1 13 -5 29 -9 36 -6 9 -4 11 5 5 10 -6 12 -4 7
10 -4 9 -2 25 5 33 10 12 10 14 1 8 -9 -5 -13 1 -14 21 -2 67 0 151 4 183 3
19 0 43 -5 54 -8 14 -7 17 3 11 9 -6 10 -3 6 10 -4 9 -2 25 5 33 8 9 8 13 2 9
-7 -4 -14 3 -16 18 -3 14 -1 25 3 25 5 0 5 10 0 23 -5 12 -5 31 -1 43 5 11 4
27 0 34 -5 7 -5 23 -1 34 5 12 6 36 4 53 -3 28 -1 33 16 33 15 0 19 -5 16 -21
-3 -12 -1 -18 3 -15 4 4 8 12 8 17 1 5 2 14 3 19 0 6 8 10 17 10 9 0 13 -5 9
-12 -4 -7 0 -5 8 5 8 9 18 17 22 17 4 0 34 13 66 30 33 16 59 27 59 24 0 -3 7
2 16 10 13 14 28 18 50 15 4 0 10 4 14 10 3 6 15 13 26 15 10 2 32 9 48 15 16
7 31 9 34 7 2 -3 13 -1 23 5 14 7 19 6 19 -3 0 -10 2 -10 9 1 11 17 133 23
143 7 5 -7 8 -7 8 2 0 8 5 10 12 6 20 -13 215 -12 272 1 41 10 56 10 60 1 2
-6 5 -3 5 7 1 14 6 17 22 12 16 -5 19 -4 14 5 -5 8 -4 11 3 6 6 -3 13 -2 17 4
3 5 15 10 25 10 10 0 20 4 22 9 2 5 10 11 18 13 8 2 21 9 28 16 20 19 37 15
21 -5 -13 -16 -12 -17 3 -4 10 7 16 17 13 21 -3 4 16 24 42 44 25 19 52 45 60
56 8 11 19 17 25 14 6 -4 8 -2 5 3 -4 6 8 28 26 48 17 20 33 40 33 43 6 27 18
52 26 52 5 0 7 4 3 9 -3 5 -1 12 4 15 4 3 11 20 15 37 3 18 14 38 24 46 9 8
11 12 4 8 -8 -4 -11 1 -8 17 3 13 5 29 5 36 1 7 4 11 9 9 4 -3 6 29 4 70 -3
61 -1 74 10 67 10 -6 10 -4 -1 9 -7 9 -11 26 -8 37 3 12 1 18 -5 14 -7 -4 -9
6 -6 29 2 21 0 33 -6 30 -5 -3 -7 5 -4 20 3 15 2 25 -1 22 -4 -2 -17 25 -30
61 -12 35 -27 64 -32 64 -5 0 -9 5 -9 11 0 5 6 7 13 3 9 -5 9 -4 0 6 -6 7 -9
19 -6 26 3 8 0 14 -7 14 -8 0 -11 9 -8 25 3 13 0 26 -6 29 -6 3 -5 5 3 5 11 1
11 4 1 16 -7 8 -9 15 -4 15 5 0 3 4 -3 8 -7 4 -15 19 -17 32 -2 14 -5 27 -6
30 -2 3 -2 8 -1 13 0 4 -3 7 -8 7 -5 0 -13 10 -17 23 -12 39 -76 128 -130 181
-97 94 -242 163 -367 172 -61 5 -107 11 -137 19 -8 2 -18 4 -22 4 -4 1 -21 15
-38 33 -23 23 -27 34 -18 40 10 6 9 8 -4 8 -15 0 -45 60 -30 60 4 0 2 4 -4 8
-6 4 -27 33 -48 65 -47 74 -131 157 -199 196 -54 30 -147 68 -182 74 -11 1
-24 5 -30 8 -5 3 -22 5 -37 4 -26 -1 -33 6 -28 30 5 25 2 133 -4 143 -3 6 -2
13 4 17 7 4 6 13 -1 27 -6 11 -7 18 -2 15 10 -6 8 87 -2 103 -3 5 -1 11 5 15
7 4 6 13 -1 27 -6 11 -7 18 -1 14 5 -3 8 11 6 34 l-3 40 134 -2 c92 -1 132 -5
128 -12 -4 -6 1 -5 10 3 9 7 26 11 37 8 11 -3 22 -1 25 4 3 4 12 6 19 3 23 -9
97 -10 102 -2 3 5 10 5 16 2 5 -3 70 -6 144 -7 94 0 131 -3 127 -11 -4 -6 1
-5 10 3 9 7 26 11 37 8 11 -3 22 -1 25 4 3 4 12 5 21 2 8 -3 61 -6 117 -7 93
-1 103 -3 111 -22 5 -11 23 -26 40 -34 17 -7 43 -18 59 -26 15 -7 25 -8 22 -3
-4 5 7 9 22 9 33 0 106 34 95 45 -4 4 2 5 13 3 15 -2 19 2 17 16 -2 10 0 16 5
13 5 -3 10 2 11 11 1 9 3 36 6 59 2 23 7 47 11 54 5 7 4 10 -2 6 -6 -4 -14 4
-17 19 -8 30 -58 81 -93 95 -31 12 -95 12 -126 0 -13 -5 -39 -25 -58 -45 l-33
-36 -597 0 -597 0 0 -311 c0 -171 -2 -312 -4 -315 -10 -10 -95 -10 -118 0 -13
6 -62 48 -108 94 -46 45 -87 82 -91 82 -4 0 -18 9 -30 19 -16 14 -18 21 -9 24
10 4 10 6 1 6 -7 1 -13 7 -13 15 0 8 6 17 13 19 10 4 10 6 0 6 -7 1 -13 8 -13
17 0 9 5 12 13 8 10 -6 10 -4 0 7 -7 7 -13 19 -13 27 0 8 5 10 13 6 9 -6 9 -4
1 7 -15 19 -16 121 0 112 6 -3 6 -1 -1 8 -7 7 -13 19 -13 27 0 8 5 10 13 6 9
-6 9 -4 1 7 -15 19 -16 121 0 112 6 -3 6 -1 -1 8 -7 7 -13 19 -13 27 0 8 5 10
13 6 9 -6 9 -5 1 7 -15 18 -15 70 0 88 8 12 8 13 -1 7 -8 -4 -13 -1 -13 9 0
10 5 14 13 9 10 -6 10 -4 0 7 -7 7 -13 19 -13 27 0 8 5 10 13 6 9 -6 9 -5 1 7
-7 8 -12 28 -12 44 0 17 5 36 12 44 8 12 8 13 -1 7 -8 -4 -13 -1 -13 9 0 10 5
14 13 9 10 -6 10 -4 0 7 -16 16 -17 43 -2 34 6 -4 5 2 -2 13 -11 17 -10 24 2
38 9 11 9 15 2 10 -8 -4 -13 -1 -13 9 0 10 5 13 13 9 7 -5 7 -1 -3 12 -8 10
-11 16 -6 12 10 -9 49 30 69 69 23 43 17 130 -11 170 -27 38 -96 73 -143 73
-19 -1 -51 -10 -71 -20z"/>
<path d="M2590 4500 c0 -5 5 -10 11 -10 5 0 7 5 4 10 -3 6 -8 10 -11 10 -2 0
-4 -4 -4 -10z"/>
<path d="M3133 3885 c0 -8 4 -12 9 -9 5 3 6 10 3 15 -9 13 -12 11 -12 -6z"/>
<path d="M4115 3889 c-4 -6 -5 -12 -2 -15 2 -3 7 2 10 11 7 17 1 20 -8 4z"/>
<path d="M1105 3880 c-3 -6 1 -7 9 -4 18 7 21 14 7 14 -6 0 -13 -4 -16 -10z"/>
<path d="M3667 3879 c7 -7 15 -10 18 -7 3 3 -2 9 -12 12 -14 6 -15 5 -6 -5z"/>
<path d="M3870 3879 c0 -5 5 -7 10 -4 6 3 10 8 10 11 0 2 -4 4 -10 4 -5 0 -10
-5 -10 -11z"/>
<path d="M3985 3880 c-3 -6 1 -7 9 -4 18 7 21 14 7 14 -6 0 -13 -4 -16 -10z"/>
<path d="M766 3822 c-3 -5 1 -9 9 -9 8 0 12 4 9 9 -3 4 -7 8 -9 8 -2 0 -6 -4
-9 -8z"/>
<path d="M4486 1782 c-3 -5 1 -9 9 -9 8 0 12 4 9 9 -3 4 -7 8 -9 8 -2 0 -6 -4
-9 -8z"/>
<path d="M4473 1715 c0 -8 4 -12 9 -9 5 3 6 10 3 15 -9 13 -12 11 -12 -6z"/>
<path d="M4166 1402 c-3 -5 1 -9 9 -9 8 0 12 4 9 9 -3 4 -7 8 -9 8 -2 0 -6 -4
-9 -8z"/>
<path d="M1333 1385 c0 -8 4 -12 9 -9 5 3 6 10 3 15 -9 13 -12 11 -12 -6z"/>
<path d="M4115 1381 c-3 -5 -2 -12 3 -15 5 -3 9 1 9 9 0 17 -3 19 -12 6z"/>
<path d="M3776 1327 c3 -10 9 -15 12 -12 3 3 0 11 -7 18 -10 9 -11 8 -5 -6z"/>
<path d="M3840 1320 c-9 -6 -10 -10 -3 -10 6 0 15 5 18 10 8 12 4 12 -15 0z"/>
<path d="M3926 1318 c3 -5 10 -6 15 -3 13 9 11 12 -6 12 -8 0 -12 -4 -9 -9z"/>
<path d="M3450 1299 c0 -5 5 -7 10 -4 6 3 10 8 10 11 0 2 -4 4 -10 4 -5 0 -10
-5 -10 -11z"/>
<path d="M3510 1301 c0 -6 4 -13 10 -16 6 -3 7 1 4 9 -7 18 -14 21 -14 7z"/>
<path d="M3230 1216 c0 -2 8 -10 18 -17 15 -13 16 -12 3 4 -13 16 -21 21 -21
13z"/>
<path d="M2290 1180 c0 -5 5 -10 11 -10 5 0 7 5 4 10 -3 6 -8 10 -11 10 -2 0
-4 -4 -4 -10z"/>
<path d="M3095 1020 c-3 -5 -1 -10 4 -10 6 0 11 5 11 10 0 6 -2 10 -4 10 -3 0
-8 -4 -11 -10z"/>
<path d="M2107 239 c7 -7 15 -10 18 -7 3 3 -2 9 -12 12 -14 6 -15 5 -6 -5z"/>
<path d="M2636 233 c-6 -14 -5 -15 5 -6 7 7 10 15 7 18 -3 3 -9 -2 -12 -12z"/>
</g>
</svg>
