<?xml version="1.0" standalone="no"?>
<!DOCTYPE svg PUBLIC "-//W3C//DTD SVG 20010904//EN"
 "http://www.w3.org/TR/2001/REC-SVG-20010904/DTD/svg10.dtd">
<svg version="1.0" xmlns="http://www.w3.org/2000/svg"
 width="1341.000000pt" height="1341.000000pt" viewBox="0 0 1341.000000 1341.000000"
 preserveAspectRatio="xMidYMid meet">
<metadata>
Created by potrace 1.14, written by Peter Selinger 2001-2017
</metadata>
<g transform="translate(0.000000,1341.000000) scale(0.100000,-0.100000)"
fill="#000000" stroke="none">
<path d="M6431 13394 c-196 -52 -341 -235 -347 -439 -4 -100 7 -151 51 -240
36 -75 95 -142 160 -184 22 -14 42 -26 44 -28 2 -2 3 -155 2 -340 -2 -186 -4
-525 -6 -753 -2 -228 -4 -628 -6 -887 -1 -260 -6 -473 -10 -473 -4 0 -41 6
-82 14 -189 36 -443 39 -590 6 -23 -5 -53 -11 -67 -13 -113 -21 -302 -91 -412
-153 -33 -19 -63 -34 -66 -34 -4 0 -8 249 -9 553 -1 303 -5 580 -8 615 -6 55
-9 62 -28 63 -38 1 -493 7 -1102 13 -1210 13 -2230 24 -2251 25 -6 1 -16 12
-21 24 -6 13 -36 51 -67 84 -117 127 -296 180 -462 137 -149 -39 -280 -164
-331 -315 -22 -66 -24 -212 -3 -284 34 -121 130 -234 245 -290 79 -39 106 -46
189 -49 161 -7 317 70 406 199 l29 43 288 -3 c158 -2 585 -6 948 -10 970 -11
1193 -13 1468 -15 177 -1 247 -5 248 -14 0 -6 2 -269 3 -585 l2 -574 -38 -48
c-31 -39 -141 -196 -191 -273 -32 -49 -125 -140 -176 -170 -60 -37 -137 -63
-210 -71 -25 -3 -55 -8 -67 -10 -12 -3 -39 -7 -60 -11 -173 -26 -381 -106
-539 -210 -99 -64 -130 -89 -225 -184 -157 -157 -274 -340 -375 -590 -102
-251 -156 -313 -364 -419 -170 -86 -170 -86 -261 -145 -455 -296 -728 -726
-786 -1241 -4 -40 -4 -272 0 -310 11 -97 19 -145 28 -185 5 -25 11 -54 14 -64
43 -214 172 -490 315 -678 55 -73 63 -88 85 -181 107 -442 353 -803 704 -1030
196 -127 422 -209 665 -242 95 -12 406 -14 465 -2 14 3 43 8 65 11 60 8 157
31 284 65 147 39 239 39 322 -2 64 -31 72 -37 199 -160 129 -124 179 -166 283
-238 l87 -60 -6 -852 c-3 -469 -7 -949 -8 -1067 l-1 -215 -45 -34 c-67 -51
-108 -99 -145 -172 -139 -272 8 -604 300 -679 76 -19 177 -20 240 -2 53 16
135 54 135 63 0 5 5 9 10 9 39 0 153 151 181 240 23 72 31 185 17 240 -5 19
-11 46 -14 59 -16 73 -107 194 -188 250 l-42 29 2 219 c2 120 5 552 8 961 2
409 6 746 9 748 3 3 49 -4 103 -14 301 -58 644 -14 918 119 33 15 62 27 65 24
4 -2 6 -106 4 -232 -1 -125 -4 -595 -7 -1043 l-5 -815 -44 -40 c-94 -84 -148
-201 -153 -330 -4 -99 7 -151 51 -240 79 -162 250 -265 430 -260 83 3 120 11
192 46 197 94 299 305 259 536 -4 24 -12 45 -17 49 -5 3 -9 13 -9 23 0 23 -68
128 -106 163 -55 52 -73 65 -114 83 l-40 18 5 756 c11 1476 13 1599 19 1609 3
5 27 20 53 32 101 48 206 23 324 -77 101 -86 123 -103 214 -167 115 -81 280
-169 398 -211 l92 -33 -2 -523 c-4 -1281 -5 -1400 -20 -1415 -8 -8 -18 -14
-22 -14 -4 0 -34 -27 -67 -59 -51 -51 -73 -84 -114 -172 -19 -39 -32 -139 -27
-204 15 -175 108 -314 262 -391 211 -104 462 -40 596 152 150 217 93 524 -126
674 l-41 28 3 218 c1 121 4 540 7 933 4 524 8 716 17 722 6 3 39 10 73 13 33
4 79 12 101 18 22 6 45 11 50 12 15 3 87 26 110 35 107 44 122 52 450 231 87
48 332 170 341 170 3 0 20 7 37 15 43 20 233 81 277 89 126 24 285 28 375 11
99 -19 251 -79 316 -126 29 -20 38 -21 162 -16 250 11 517 73 725 168 34 16
64 29 66 29 7 0 150 82 206 118 170 110 371 298 472 442 10 14 31 44 48 67 16
24 30 47 30 53 0 5 4 10 8 10 16 0 141 264 176 370 72 215 100 391 100 615 0
108 -11 282 -19 295 -2 3 -6 21 -9 40 -18 119 -64 270 -125 410 -60 139 -119
237 -259 430 -7 10 -22 55 -33 101 -92 389 -315 754 -603 987 -39 31 -73 60
-76 63 -3 4 -48 34 -100 69 -263 173 -569 275 -885 295 -309 19 -365 36 -468
138 -48 47 -74 84 -106 152 -24 50 -59 124 -79 165 -119 246 -305 484 -497
636 -122 96 -125 98 -205 145 -111 65 -245 125 -366 163 l-108 34 1 103 c3
306 15 1191 16 1234 l2 50 340 2 c187 1 892 3 1567 4 l1227 3 48 -47 c152
-151 399 -176 578 -59 140 90 212 220 219 391 5 116 -30 221 -103 311 -49 62
-76 84 -145 121 -77 41 -138 57 -229 57 -180 1 -339 -103 -422 -276 l-23 -47
-588 -2 c-324 -1 -1112 -3 -1751 -5 l-1163 -3 -1 -25 c-1 -68 -19 -1394 -21
-1625 -1 -60 -5 -115 -10 -121 -5 -7 -48 -12 -104 -12 -53 -1 -115 -4 -138 -7
-22 -3 -57 -7 -76 -9 -19 -3 -62 -8 -95 -12 -33 -4 -85 -8 -115 -8 -148 0
-195 30 -411 259 -70 75 -139 139 -204 190 -27 22 -52 43 -55 46 -3 3 -43 30
-90 61 l-86 56 2 333 c2 184 5 636 8 1004 3 369 6 817 6 998 1 181 6 327 10
327 9 0 124 111 147 142 18 24 50 99 63 147 63 235 -67 485 -295 571 -76 28
-207 35 -284 14z"/>
</g>
</svg>
